<svg  xmlns="http://www.w3.org/2000/svg" width="400" height="400" viewBox="0 0 400 400" fill="#8f8269"><path class="cls-2 svelte-13u03o1" d="M368.06,206.76c-16.49-25.5-48.91-44.13-88.92-51.12-10.69-1.87-21.52-2.82-32.38-2.83h-5.88c-4.53-22.47-16.66-42.7-34.36-57.27-22.46-18.21-51.63-25.98-80.17-21.34-30.29,4.74-57.73,20.61-76.93,44.52-19.73,23.46-29.99,53.44-28.79,84.07.96,28.95,14.24,56.11,36.5,74.64,18.01,14.77,40.62,22.77,63.91,22.6,10.99-.04,21.92-1.66,32.45-4.81.19,0,4.77-1.53,8.55-3.17,17.41,13.52,41.42,23.9,70.48,30.24,14.43,3.13,29.14,4.75,43.9,4.81,52.38,0,90.21-23.36,100.75-64.9,5-18.93,1.68-39.1-9.12-55.43ZM241.38,197.6c.14.41.52.68.95.69h4.31c7.64.57,15.27,1.53,22.91,2.86,67.42,11.76,77.23,46.81,77.35,47.19,1.03,3.46,1.35,7.1.95,10.69-21.99,24.05-77.35,24.55-106.17,18.13-12.57-2.83-24.84-6.9-36.61-12.14l3.82-4.43c1.91-2.02,3.82-4.12,5.46-6.22,13.62-16.35,22.88-35.88,26.92-56.77h.11ZM348.97,247.84c-.38-1.49-10.12-36.69-78.99-48.72-7.64-1.37-15.61-2.33-23.25-2.9h-4.66c-.32,0-.61.16-.8.42,1.56-8.66,2.13-17.47,1.72-26.27,0-2.71-.38-5.34-.69-7.98h5.5c9.74-.02,19.46.83,29.05,2.52,33.41,5.84,59.94,20.5,72.54,40.28,7.65,11.45,10.04,25.62,6.57,38.94-1.13,4.39-3.11,8.52-5.84,12.14-.04-2.85-.43-5.68-1.15-8.44ZM153,293.24c-34.36,10.12-68.72,3.82-94.41-17.41-21.82-18.15-34.83-44.78-35.73-73.15-1.2-30.14,8.9-59.65,28.33-82.73,18.88-23.37,45.79-38.89,75.48-43.52,28-4.59,56.63,3.03,78.65,20.92,17.54,14.48,29.47,34.63,33.75,56.96h0c1.06,5.33,1.72,10.72,1.99,16.15,1.22,30.1-8.82,59.57-28.18,82.66-1.72,2.06-3.51,4.12-5.38,6.15l-4.35,4.92c-2.04-.97-4.09-1.96-6.15-2.98l4.09-4.35c2.56-2.6,4.85-5.12,6.99-7.64,15.92-18.88,24.56-42.84,24.36-67.54.05-22.65-9.91-44.16-27.22-58.76-3.71-3.04-7.71-5.7-11.95-7.94h0c-15.66-8.08-33.58-10.68-50.89-7.37-24.28,4.57-46.13,17.68-61.58,36.96-15.92,18.83-24.58,42.73-24.43,67.38.06,19.36,7.33,38.01,20.39,52.3h0c2.14,2.28,4.42,4.43,6.83,6.41,13.49,10.98,30.41,16.88,47.8,16.68,4.47,0,8.94-.35,13.36-1.03.19,0,4.96-.92,8.7-1.91,2.14,2.14,4.43,4.2,6.87,6.18-3.47,1.41-7.25,2.63-7.29,2.63ZM169.53,240.02l4.28-4.89c2.52-2.63,4.81-5.23,7.02-7.94,6.62-7.97,12.22-16.74,16.65-26.11.15-.16.24-.36.27-.57,4.72-10.12,7.72-20.96,8.86-32.07.14-.29.14-.63,0-.92h0c.27-2.98.38-5.8.38-8.51.11-.26.11-.55,0-.8h0c.07-10.21-1.84-20.33-5.61-29.82-1.38-3.31-3.09-6.47-5.12-9.43,2.66,1.65,5.22,3.47,7.64,5.46,16.86,14.23,26.55,35.2,26.46,57.27.21,24.21-8.26,47.69-23.86,66.2-2.1,2.56-4.35,5.04-6.87,7.64l-4.51,4.77c-9.79-4.99-18.48-11.89-25.58-20.27ZM141.66,269.87c2.89,4.61,6.26,8.91,10.04,12.83-3.44.84-7.29,1.57-7.33,1.57-21.11,3.72-42.81-1.84-59.52-15.27-1.15-.95-2.29-1.95-3.36-2.98,3,.91,6.11,1.4,9.24,1.45,3.93.89,7.95,1.35,11.99,1.37,9.3-.06,18.54-1.63,27.34-4.66l6.95-3.13c1.33,3.05,2.89,6,4.66,8.82ZM129.25,262.24c-12.22,4.42-25.37,5.59-38.18,3.4h-.31c-4.38-.08-8.7-1.03-12.71-2.79-12.63-13.91-19.65-32.02-19.7-50.82-.21-24.21,8.26-47.69,23.86-66.2,15.14-18.89,36.53-31.74,60.32-36.23,16.78-3.21,34.16-.72,49.36,7.06,2.98,3.89,5.54,8.09,7.64,12.52,3.64,9.15,5.49,18.91,5.46,28.75l-5.04,1.68c-34.55,10.46-58.45,32.41-65.51,60.24-3.55,12.95-2.89,26.7,1.91,39.25l-7.1,3.13ZM195.76,199.63l-6.76,1.79c-7.55,1.95-14.76,5.04-21.38,9.16-2.24,1.45-4.29,3.2-6.07,5.19.16-1.76.45-3.51.88-5.23,4.35-17.1,17.26-30.54,37.3-39.09l4.54-1.87c-1.22,10.36-4.08,20.47-8.48,29.93l-.04.11ZM168.77,212.22c6.46-3.98,13.47-6.98,20.81-8.9l5.08-1.34c-4.23,8.54-9.45,16.56-15.54,23.9-2.21,2.67-4.47,5.23-6.99,7.86l-3.82,4.58c-.57-.8-1.15-1.6-1.64-2.44-3.25-4.98-5.07-10.75-5.27-16.68,2.03-2.74,4.52-5.11,7.37-6.99ZM375.27,261.86c-13.02,51.12-68.72,74.03-142.29,58.37-29.09-6.3-52.88-16.65-69.94-30.08h0c-7.73-5.91-14.37-13.12-19.62-21.3-9.13-14.47-11.71-32.13-7.1-48.6,6.91-27.11,30.28-48.52,64.14-58.76l4.39-1.45c0,2.29,0,4.73-.34,7.22l-5.57,2.33c-20.69,8.74-33.98,22.91-38.52,40.51-.71,2.81-1.07,5.69-1.07,8.59-.05.18-.05.36,0,.53.12,6.34,1.99,12.52,5.38,17.87,6.11,9.93,17.1,18.4,29.86,25.24h0c.12.11.26.19.42.23,2.56,1.37,5.19,2.67,7.83,3.82h.27c12.26,5.56,25.05,9.84,38.18,12.79,11.63,2.41,23.48,3.59,35.35,3.51,34.36,0,74.1-9.24,81.47-38.18,3.63-13.87,1.15-28.62-6.8-40.55-13.1-20.23-40.13-35.28-74.1-41.19-9.7-1.71-19.54-2.55-29.4-2.52h-5.73c-.25-1.81-.55-3.59-.88-5.34h5.15c10.8-.03,21.59.9,32.22,2.79,39.51,6.95,71.43,25.24,87.62,50.09,10.63,15.87,13.94,35.54,9.09,54.02v.08Z"></path></svg>


