<svg xmlns="http://www.w3.org/2000/svg" width="400" height="400" viewBox="0 0 400 400" fill="#bbad81">
<path class="cls-1 svelte-1sg7jcf" d="M7.53,75.67l13.47,7.39c5.72,3.13,10.93,7,15.59,11.44-19.72,31.54-30.61,68.86-30.61,105.5,0,107.53,87.25,195,194.51,195s194.51-87.48,194.51-195S307.75,5,200.49,5c-42.44,0-82.63,13.44-116.45,38.84-3.8-4.26-7.14-8.94-9.91-14.02l-7.36-13.5c-1.7-3.13-6.86-3.13-8.56,0l-7.36,13.5c-6.9,12.65-17.22,23-29.84,29.92l-13.47,7.38c-1.56.86-2.53,2.49-2.53,4.28s.97,3.42,2.53,4.28ZM200.49,14.75c101.88,0,184.76,83.1,184.76,185.25s-82.88,185.25-184.76,185.25S15.73,302.15,15.73,200c0-33.95,9.89-68.5,27.74-98.01,2.75,3.43,5.24,7.09,7.37,10.99l7.36,13.5c.85,1.57,2.49,2.54,4.28,2.54s3.43-.97,4.28-2.54l7.36-13.5c6.9-12.66,17.22-23,29.85-29.92l13.46-7.39c1.56-.86,2.53-2.49,2.53-4.28s-.97-3.42-2.53-4.28l-13.46-7.38c-4.64-2.54-8.95-5.56-12.92-8.97,31.87-23.56,69.61-36.02,109.43-36.02ZM25.69,68.29c14.26-7.82,25.92-19.51,33.72-33.8l3.08-5.66,3.08,5.66c7.8,14.29,19.46,25.98,33.72,33.8l5.67,3.11-5.67,3.11c-14.26,7.81-25.92,19.5-33.72,33.8l-3.08,5.66-3.08-5.66c-7.8-14.29-19.46-25.98-33.72-33.8l-5.67-3.11,5.67-3.11Z"></path><path class="cls-1 svelte-1sg7jcf" d="M332.18,276l-11.3-6.2c-10.46-5.73-19.01-14.31-24.72-24.79l-6.18-11.33c-1.71-3.13-6.85-3.13-8.56,0l-6.18,11.33c-5.72,10.49-14.27,19.06-24.72,24.79l-11.3,6.2c-1.56.86-2.53,2.49-2.53,4.28s.97,3.42,2.53,4.28l11.3,6.19c10.45,5.73,19,14.3,24.72,24.79l6.18,11.33c.85,1.57,2.49,2.54,4.28,2.54s3.43-.97,4.28-2.54l6.18-11.33c5.71-10.48,14.26-19.05,24.72-24.79l11.3-6.19c1.56-.86,2.53-2.49,2.53-4.28s-.97-3.42-2.53-4.28ZM316.2,282.19c-12.1,6.63-21.99,16.55-28.6,28.67l-1.9,3.48-1.9-3.48c-6.62-12.13-16.51-22.04-28.6-28.67l-3.5-1.92,3.5-1.92c12.09-6.63,21.98-16.54,28.6-28.67l1.9-3.48,1.9,3.48c6.61,12.12,16.5,22.04,28.6,28.67l3.5,1.92-3.5,1.92Z"></path><path class="cls-1 svelte-1sg7jcf" d="M200.49,52.64c81.75,0,148.26,66.69,148.26,148.66,0,2.69,2.18,4.87,4.87,4.87s4.88-2.18,4.88-4.87c0-87.35-70.88-158.41-158.01-158.41-2.69,0-4.87,2.18-4.87,4.87s2.18,4.88,4.87,4.88Z"></path><path class="cls-1 svelte-1sg7jcf" d="M200.49,349.96c-81.75,0-148.26-66.69-148.26-148.66,0-2.69-2.18-4.87-4.88-4.87s-4.87,2.18-4.87,4.87c0,87.35,70.88,158.41,158.01,158.41,2.69,0,4.88-2.18,4.88-4.88s-2.18-4.88-4.88-4.88Z"></path><path class="cls-1 svelte-1sg7jcf" d="M200.49,83.92c63.59,0,115.32,51.87,115.32,115.63,0,2.69,2.18,4.87,4.88,4.87s4.88-2.18,4.88-4.87c0-69.14-56.11-125.38-125.07-125.38-2.69,0-4.87,2.18-4.87,4.87s2.18,4.88,4.87,4.88Z"></path><path class="cls-1 svelte-1sg7jcf" d="M200.49,315.18c-63.59,0-115.32-51.87-115.32-115.63,0-2.69-2.18-4.88-4.88-4.88s-4.88,2.18-4.88,4.88c0,69.14,56.11,125.38,125.07,125.38,2.69,0,4.88-2.18,4.88-4.88s-2.18-4.88-4.88-4.88Z"></path><path class="cls-1 svelte-1sg7jcf" d="M200.49,250.94c28.02,0,50.82-22.85,50.82-50.94s-22.8-50.94-50.82-50.94-50.82,22.85-50.82,50.94,22.8,50.94,50.82,50.94ZM200.49,158.81c22.65,0,41.07,18.48,41.07,41.19s-18.42,41.19-41.07,41.19-41.07-18.48-41.07-41.19,18.42-41.19,41.07-41.19Z"></path></svg>