<svg xmlns="http://www.w3.org/2000/svg" width="400" height="400" viewBox="0 0 400 400" fill="#bbad81">
<g><path class="cls-2 svelte-mmf8oc" d="M374.46,183.59h-22.11c-2.92-71.22-56.23-129.68-125.2-140.43v-13.42c0-13.24-10.81-24.05-24.05-24.05s-24.05,10.81-24.05,24.05v12.63C108.49,50.08,50.65,108.63,47.6,183.59h-22.06c-3.36,0-6.07,2.72-6.07,6.07s2.72,6.07,6.07,6.07c.63,0,61.35.02,57.52.01-.97,2.19-1.52,4.55-1.52,7.04.06,5.1,2.31,9.84,6.31,13.05l71.89,57.93c20.83,16.82,39.35,36.37,54.95,58.11l5.04,7.04-4.55,3.22c-1.4.97-2.31,2.49-2.55,4.13-.24,1.7.3,3.4,1.4,4.74l34.67,41.17c1.21,1.4,2.91,2.13,4.68,2.13,1.28,0,2.55-.36,3.58-1.21l70.74-53.01c2.61-1.94,3.16-5.65,1.28-8.32l-29.27-41.47c-1.88-2.73-5.65-3.4-8.44-1.52l-3.28,2.31c-8.74-36.67-4.68-63.03.49-79.06,1.82-5.53.97-11.42-2.25-16.27h60.17s.04-.01.07-.01h27.98c3.36,0,6.07-2.72,6.07-6.07s-2.71-6.07-6.07-6.07ZM191.2,29.74c0-6.56,5.34-11.9,11.9-11.9s11.9,5.34,11.9,11.9v12.08c-3.52-.3-7.1-.43-10.75-.43-9.12,0-11.05-.04-13.05.12v-11.78ZM99.52,93.44c45.04-45.04,102.02-39.42,104.74-39.89,72.1,0,132.78,56.97,135.95,130.05H59.81c1.46-34.12,15.42-65.93,39.71-90.15ZM293.27,302.19l22.4,31.76-61.39,46.03-26.72-31.7c84.13-58.68,30.41-21.09,65.7-46.09ZM229.7,331.94l-5.1-7.16c-16.27-22.59-35.52-42.93-57.26-60.42l-71.89-57.93c-2.35-1.97-2.35-5.44,0-7.41,1.64-1.41,4.3-1.53,6.13.06,124.68,107.41-42.72-36.8,81.06,69.95,2.49,2.19,6.38,1.94,8.56-.61,2.19-2.55,1.88-6.38-.67-8.56l-60.9-52.64c-3.19-2.8-2.87-7.92.67-10.32,2.44-1.67,5.59-1.49,7.83.3l60.54,48.52c18.88,14.75,49.74,12.98,57.93-14.45l8.08-27.02c.85-2.85,3.52-4.74,6.68-4.55,4.2.29,6.94,4.49,5.59,8.56-5.95,18.22-10.57,48.45.36,90.29l-47.6,33.4ZM253.02,200.79l-8.08,27.02c-5.35,17.92-25.64,18.38-38.68,8.44l-50.52-40.5h99.64c-1.03,1.52-1.82,3.22-2.37,5.04Z"></path><path class="cls-2 svelte-mmf8oc" d="M189.4,68.34c-55.3,2.84-100.06,42.1-112.04,93.32-.77,3.26,1.26,6.53,4.53,7.29,3.32.77,6.54-1.31,7.29-4.53,10.82-46.23,51.23-81.41,100.83-83.95,3.35-.17,5.93-3.03,5.76-6.37-.17-3.36-3.31-6.03-6.37-5.76Z"></path><circle class="cls-2 svelte-mmf8oc" cx="256.77" cy="352.81" r="7.77"></circle></g></svg>