<svg xmlns="http://www.w3.org/2000/svg" width="400" height="400" viewBox="0 0 400 400" fill="#bbad81">
<g><path class="cls-2 svelte-mmf8oc" d="M197.5,131.51c-2.6,0-4.7,2.1-4.7,4.7,0,.05,0,.1,0,.15v54.92c-.04,2.6,2.04,4.73,4.63,4.77,2.6.04,4.73-2.04,4.77-4.63,0-.04,0-.09,0-.13v-54.92c.08-2.59-1.96-4.76-4.55-4.84-.05,0-.1,0-.15,0Z"></path><path class="cls-2 svelte-mmf8oc" d="M192.8,7.22v16.74h-18.94c-.2-.01-.39-.01-.59,0-2.46.15-4.56,2.53-4.41,4.99.16,2.46,2.53,4.56,4.99,4.41h18.94v51.25l-36.86,23.64c-1.34.84-2.2,2.39-2.2,3.96v51.83h-51.25c-2.97,0-4.64,2.69-4.7,4.7v59.91H9.7c-.29-.05-.59-.05-.88,0-2.15.41-3.86,2.51-3.82,4.7v159.17c0,2.46,2.24,4.7,4.7,4.7h380.6c2.46,0,4.7-2.24,4.7-4.7v-159.17c0-2.46-2.24-4.7-4.7-4.7h-92.95v-59.91c0-2.46-2.24-4.7-4.7-4.7h-51.39v-51.83c.05-1.55-.77-3.09-2.06-3.96l-37-23.79v-51.1h19.09c2.48.04,4.77-2.22,4.77-4.7s-2.28-4.73-4.77-4.7h-19.09V7.22c-.29-5.94-9.35-5.93-9.4,0ZM197.5,92.68c11.51,6.85,23,14.65,34.36,22.03v51.98c0,5.4,1.53,6.82,5.73,6.75h50.36v214.38h-44.2v-132.45c0-2.46-2.24-4.7-4.7-4.7h-82.96c-.29-.05-.59-.05-.88,0-2.15.41-3.86,2.51-3.82,4.7v132.45h-44.2v-214.38h50.36c4.07-.07,5.5-2.8,5.58-5.58v-53.01c11.48-7.33,22.83-15,34.36-22.17ZM14.4,238.05h83.4v149.77H14.4v-149.77ZM297.35,238.05h88.25v149.77h-88.25v-149.77ZM160.79,260.08h73.57v127.75h-73.57v-127.75Z"></path></g></svg>