<svg xmlns="http://www.w3.org/2000/svg" width="400" height="400" viewBox="0 0 400 400 " fill="#cbb878">
<defs></defs><g><path class="cls-2 svelte-mmf8oc" d="M102.67,331.95h.77c1.92,0,3.46-1.15,3.85-3.08.38-1.92-.77-4.23-3.08-4.62l-20.77-4.23,21.54-100.79,92.33-66.17.38-1.54c.77-3.46-2.31-6.92-6.54-7.69l-141.95-29.62c-1.92-.38-3.46-.38-5,0-2.31.77-3.85,2.31-4.23,4.23l-.38,1.54,57.7,97.71-21.16,100.4-20.77-4.23c-1.92-.38-4.23.77-4.62,3.08-.38,1.92.77,4.23,3.08,4.62l48.86,10.39ZM59.59,138.83l-9.62-16.93,137.33,29.24-17.7,12.69c-5.39.77-12.31.77-22.31-1.54-13.08-2.69-19.62-6.92-26.16-11.16-6.92-4.62-14.23-9.23-28.85-12.31-14.62-3.08-23.08-1.92-31.16-.77l-1.54.77ZM63.82,145.76c7.31-1.15,14.62-1.54,26.54.77,13.08,2.69,19.62,6.92,26.16,11.16,6.92,4.62,14.23,9.23,28.85,12.31,5,1.15,8.85,1.54,12.69,1.92l-55.4,39.62h0l-38.85-65.78Z"></path><path class="cls-2 svelte-mmf8oc" d="M360.03,118.45c-.38-1.92-1.92-3.46-4.23-4.23-1.54-.38-3.08-.38-5,0l-141.57,30.01c-4.62.77-7.31,4.23-6.54,7.69l.38,1.54,92.33,66.17,21.16,100.4-20.77,4.23c-1.92.38-3.46,2.31-3.08,4.62.38,1.92,1.92,3.08,3.85,3.08h.77l48.86-10.39c1.92-.38,3.46-2.31,3.08-4.62-.38-1.92-2.31-3.46-4.62-3.08l-20.77,4.23-21.16-100.4,57.7-97.71-.38-1.54ZM297.71,211.16q-.38,0,0,0-.38.38,0,0l-55.78-39.24c3.85-.38,7.69-.77,12.69-1.92,14.62-3.08,21.93-7.69,28.85-12.31,6.92-4.23,13.08-8.46,26.16-11.16,11.93-2.69,19.23-1.92,26.54-.77l-38.47,65.4ZM340.41,138.83h-1.15c-8.08-1.15-16.93-2.31-31.16.77-14.62,3.08-21.93,7.69-28.85,12.31-6.92,4.23-13.08,8.46-26.16,11.16-10,2.31-16.54,1.92-22.31,1.54l-17.7-12.69,136.95-30.01-9.62,16.93Z"></path><path class="cls-2 svelte-mmf8oc" d="M203.85,113.06l.77-41.16c0-2.31-1.54-3.85-3.85-3.85h0c-1.92,0-3.85,1.54-3.85,3.85l-.77,40.78c0,2.31,1.54,3.85,3.85,3.85h0c1.92,0,3.85-1.54,3.85-3.46Z"></path><path class="cls-2 svelte-mmf8oc" d="M229.62,95.36l-10.39,17.31c-1.15,1.92-.38,4.23,1.15,5.39.77.38,1.15.38,1.92.38,1.15,0,2.69-.77,3.46-1.92l10.39-17.31c1.15-1.92.38-4.23-1.15-5.39-1.92-.77-4.23,0-5.39,1.54Z"></path><path class="cls-2 svelte-mmf8oc" d="M164.99,94.21c-1.92,1.15-2.31,3.46-1.15,5.39l10.77,17.31c.77,1.15,1.92,1.92,3.08,1.92.77,0,1.54,0,1.92-.77,1.92-1.15,2.31-3.46,1.15-5.39l-10.39-16.93c-1.15-1.92-3.46-2.69-5.39-1.54Z"></path></g></svg>