<svg xmlns="http://www.w3.org/2000/svg" height="1em" class=" svelte-1sg7jcf" fill="#bbad81" viewBox="0 0 51.54 65.65"><g id="Capa_1-2" data-name="Capa 1"><g><polygon class="cls-1 svelte-1sg7jcf" points="51.54 21.46 40.07 11.68 25.91 65.65 46.82 35.29 42.44 30.57 51.54 21.46"></polygon><polygon class="cls-1 svelte-1sg7jcf" points="0 21.46 9.11 30.57 4.72 35.29 25.64 65.65 11.47 11.68 0 21.46"></polygon><circle class="cls-1 svelte-1sg7jcf" cx="25.37" cy="43.25" r="2.16"></circle><circle class="cls-1 svelte-1sg7jcf" cx="25.37" cy="29.49" r="2.7"></circle><circle class="cls-1 svelte-1sg7jcf" cx="25.37" cy="15.72" r="2.16"></circle><path class="cls-1 svelte-1sg7jcf" d="M16.47,8.93c4.68-.65,5.74-.72,6.01-.99.07-.07.38-.23.72-.48.48.52,1.15.86,1.92.87.84.01,1.59-.38,2.08-.99.29.21.53.34.59.41.26.27,1.32.37,5.98,1.13,4.66.76,3.39-3.4,3.31-4.28-.08-.88.2-2.29-.66-4.15-.86-1.86-9.2,2.8-9.2,2.8-.16.13-.3.26-.43.39-.45-.36-1-.58-1.62-.59-.68,0-1.3.25-1.77.67-.09-.08-.16-.16-.26-.25,0,0-8.23-4.86-9.14-3.02-.9,1.84-.66,3.26-.75,4.14-.1.88-1.47,5.01,3.21,4.36Z"></path></g></g></svg>