<svg xmlns="http://www.w3.org/2000/svg"  height="1em" class=" svelte-1sg7jcf" fill="#bbad81" viewBox="0 0 37.83 64.39"><g id="Capa_1-2" data-name="Capa 1"><path class="cls-1 svelte-1sg7jcf" d="M.28,64.23c2.23.07,6.9.28,16.83.08,3.24.07,6.64.03,9.73-.05-4.61-13.57-.13-30.95-.13-30.95,0,0-3.87,27.17,4.26,30.79,4.27-.21,7.18-.52,6.84-.76.21-.88-7.22-4.98-9.62-12.47-.41-1.27-.67-2.64-.73-4.1-.3-.98-.45-2.62-.48-4.24-.05-2.04.07-4.04.27-4.63,5.21-18.54-1.81-17.52-2.08-24.55,1.04-4.44,5.35-9.46,2.83-12.33-1.64-1.86-8.48-1.41-10.71,3.3l-.16-.06h0s0,0,0,0h0s0,0,0,0l-.17.06C14.71-.39,7.87-.84,6.23,1.02c-2.53,2.87,1.79,7.88,2.83,12.33-.27,7.02-7.29,6-2.08,24.55.35,1.06,1.26,4.93-.37,8.87-2.42,5.21-7.91,17.42-6.33,17.47Z"></path></g></svg>