<svg xmlns="http://www.w3.org/2000/svg" width="400" height="400" viewBox="0 0 400 400" fill="#8f8269"><defs></defs><path class="cls-2 svelte-mmf8oc" d="M361.89,202.97c-22.13-11.73-52.43-24.73-85.36-36.63-51.23-18.53-98.06-30.49-119.28-30.49-4.75,0-11.23.5-12.78,4.76-.01,0-.01,0-.01,0l-10.63,29.4c-.24.66-.14,1.37.2,1.93.46,2.12,2.24,4.94,6.86,8.81.2.64.69,1.21,1.39,1.45.18.07.38.1.57.12,1.11.86,2.34,1.75,3.72,2.7-3.18-.03-6.39-.05-9.57-.05-35.01,0-67.94,1.93-92.72,5.43-11,1.55-40.23,5.68-40.23,15.28v31.26c0,.71.34,1.33.84,1.75,2.39,3.79,11.01,8.4,39.38,12.4,24.79,3.5,57.71,5.43,92.72,5.43,5.24,0,10.51-.04,15.79-.13.34.2.73.33,1.16.33.47,0,.88-.14,1.24-.37,3.54-.08,7.07-.17,10.59-.28.19.05.39.1.59.1.26,0,.5-.06.74-.13,3.82-.14,7.62-.29,11.38-.47.1.02.2.03.31.03.19,0,.36-.03.54-.07,3.44-.17,6.85-.36,10.22-.57.17.04.35.07.54.07.29,0,.56-.05.81-.16,3.19-.21,6.35-.43,9.45-.67.31.16.66.26,1.03.26.5,0,.96-.17,1.34-.44,3.27-.27,6.48-.56,9.62-.86.27.11.57.18.89.18.48,0,.93-.15,1.29-.4,8.26-.86,15.94-1.85,22.8-3,.07,0,.14.01.21.01.34,0,.67-.08.96-.22,3.42-.59,6.63-1.22,9.6-1.89.37.26.81.41,1.3.41.86,0,1.6-.49,1.98-1.2,8.68-2.19,14.74-4.75,17.16-7.66,24.05,8.19,46.83,14.83,65.97,19.2,0,.01.02.02.02.02.18.06.35.1.53.12,2.1.48,4.16.93,6.17,1.36,14.28,3,23.79,4.1,30.16,4.1,5.93,0,9.12-.96,10.91-2.23.78-.14,1.46-.65,1.74-1.44l10.63-29.39c.14-.38.17-.78.1-1.15.59-4.12-3.5-11.4-32.89-26.97ZM142.17,175.8c-3.19-2.94-3.93-4.67-3.69-5.32h0s8.15-22.53,8.15-22.53c.98,1.2,2.29,2.55,4.04,4.04l-8.5,23.82ZM145.87,178.88l8.53-23.92c1.91,1.4,4.14,2.93,6.76,4.59l-8.57,24c-2.7-1.74-4.91-3.29-6.72-4.67ZM197.14,206.64c-2.47-1.1-4.86-2.2-7.22-3.3l8.6-24.12c2.36,1.1,4.77,2.2,7.23,3.3l-8.61,24.12ZM209.89,184.38c2.38,1.05,4.81,2.1,7.27,3.15l-8.6,24.12c-2.45-1.05-4.89-2.1-7.27-3.14l8.6-24.12ZM185.8,201.42c-2.45-1.17-4.83-2.33-7.16-3.48l8.61-24.11c2.32,1.15,4.7,2.3,7.16,3.47l-8.61,24.11ZM174.58,195.91c-1.91-.98-3.8-1.95-5.61-2.91-.5-.26-.98-.52-1.47-.78l8.6-24.1c.34.18.66.36,1,.55,1.96,1.03,4,2.08,6.08,3.14l-8.6,24.11ZM163.48,190.02c-2.57-1.43-4.88-2.77-6.96-4.02l8.58-24.04c2.12,1.26,4.44,2.58,6.98,3.99l-8.6,24.08ZM14.99,239.99c-4.89-1.88-6.41-3.44-6.41-4.2v-23.98c1.67,1,3.8,1.95,6.41,2.86v25.31ZM27.42,243.53c-3.09-.68-5.7-1.37-7.91-2.01v-25.42c2.37.66,5.01,1.31,7.91,1.93v25.5ZM39.84,245.85c-2.89-.46-5.51-.92-7.91-1.38v-25.52c2.48.47,5.12.92,7.91,1.35v25.55ZM52.27,247.57c-2.52-.31-4.99-.62-7.35-.96-.19-.03-.38-.05-.56-.09v-25.56c2.55.36,5.2.7,7.92,1.03v25.57ZM64.7,248.91c-2.7-.26-5.33-.53-7.92-.82v-25.58c2.58.28,5.21.56,7.92.81v25.59ZM77.13,249.94c-2.68-.2-5.32-.41-7.91-.63v-25.59c2.58.23,5.23.42,7.91.62v25.6ZM89.55,250.74c-2.67-.15-5.32-.31-7.91-.48v-25.61c2.59.17,5.24.33,7.91.48v25.61ZM101.98,251.32c-2.66-.11-5.3-.23-7.91-.34v-25.61c2.61.12,5.25.24,7.91.34v25.61ZM114.41,251.72c-2.66-.07-5.29-.14-7.91-.23v-25.62c2.62.09,5.25.17,7.91.23v25.62ZM126.83,251.93c-2.65-.03-5.29-.07-7.91-.11v-25.62c2.62.05,5.26.1,7.91.12v25.61ZM139.27,251.99c-.75,0-1.5,0-2.26,0-1.89,0-3.77,0-5.65-.02v-25.61c1.88,0,3.76.01,5.65.01.75,0,1.51,0,2.26,0v25.62ZM151.69,251.88c-2.6.04-5.24.07-7.92.1v-25.62c2.65-.02,5.29-.05,7.92-.09v25.61ZM164.12,251.59c-2.59.08-5.23.14-7.91.2v-25.61c2.66-.05,5.3-.12,7.91-.2v25.62ZM176.55,251.13c-2.59.12-5.23.23-7.9.32v-25.62c2.66-.09,5.3-.19,7.9-.31v25.61ZM187.85,250.54c-2.22.13-4.48.26-6.78.39v-25.62c2.28-.12,4.54-.24,6.78-.37v25.61ZM199.15,249.77c-2.21.18-4.47.33-6.78.49v-25.61c2.29-.16,4.56-.32,6.78-.48v25.6ZM211.01,248.73c-2.38.23-4.83.46-7.35.68v-25.47s-.02-.09-.02-.13c2.51-.21,4.95-.43,7.36-.66v25.58ZM212.36,218.48c-21.91,2.19-48.26,3.39-75.36,3.39-34.8,0-67.51-1.91-92.09-5.38-5.41-.76-10.04-1.55-14.01-2.35-.35-.23-.78-.36-1.23-.36-.14,0-.26.02-.39.04-16.58-3.46-20.71-6.89-20.71-8.14,0-1.58,6.53-6.6,36.35-10.81,24.58-3.47,57.28-5.39,92.09-5.39,5.08,0,10.2.05,15.22.13.39.01.75-.09,1.07-.25,3.77,2.29,8.25,4.84,13.55,7.65,12.89,6.83,28.59,14.11,45.95,21.33-.16.04-.31.09-.44.15ZM212.72,213.41l8.61-24.12c2.4,1.01,4.86,2.01,7.32,3.02l-8.61,24.13c-2.47-1.01-4.91-2.02-7.32-3.02ZM222.87,223.37v24.04c-2.37.3-4.81.58-7.35.85v-25.57c2.11-.23,4.18-.45,6.2-.69.43.18.88.35,1.32.53-.1.26-.17.55-.17.85ZM232.84,194.01c2.43.97,4.89,1.93,7.36,2.91l-8.61,24.12c-2.47-.96-4.93-1.93-7.36-2.91l8.61-24.12ZM235.3,245.66c-2.5.4-5.13.79-7.91,1.18v-22.58c2.62,1.03,5.25,2.05,7.91,3.08v18.32ZM235.8,222.68l8.61-24.12c2.44.94,4.92,1.88,7.4,2.8l-8.61,24.13c-2.49-.93-4.96-1.87-7.4-2.81ZM247.17,231.84v11.58c-2.26.5-4.71.99-7.34,1.47v-15.83c2.43.92,4.88,1.83,7.35,2.73,0,.03-.01.04-.01.05ZM247.43,227.07l8.61-24.12c2.13.78,4.26,1.56,6.41,2.34.34.12.68.25,1.02.36l-8.6,24.12c-.38-.13-.75-.27-1.11-.4-2.13-.77-4.22-1.54-6.32-2.32ZM251.69,242.33v-8.9c.18.06.34.12.52.2,3.87,1.39,7.71,2.75,11.53,4.08-2.21,1.56-6.3,3.14-12.05,4.62ZM266.58,233.92c-2.48-.86-4.96-1.73-7.47-2.62l8.61-24.12c2.5.89,4.99,1.76,7.47,2.62l-8.6,24.12ZM270.86,235.38l8.6-24.12c2.52.86,5.03,1.69,7.5,2.51l-8.6,24.12c-2.48-.82-4.99-1.67-7.5-2.51ZM282.66,239.29l8.6-24.11c2.53.81,5.05,1.62,7.54,2.4l-8.61,24.12c-2.48-.79-5.01-1.59-7.53-2.41ZM294.52,243.04l8.61-24.12c2.19.68,4.36,1.33,6.5,1.97l-8.6,24.11c-2.15-.64-4.32-1.3-6.51-1.96ZM305.36,246.26l8.6-24.09c2.21.64,4.39,1.26,6.54,1.86l-8.6,24.09c-2.15-.59-4.34-1.22-6.54-1.86ZM316.27,249.33l8.59-24.09c2.24.61,4.43,1.18,6.58,1.75l-8.6,24.08c-2.15-.55-4.36-1.14-6.57-1.74ZM333.88,253.78c-2.17-.51-4.38-1.03-6.63-1.6l8.6-24.07c2.25.57,4.46,1.1,6.61,1.61l-8.58,24.06ZM342.18,255.62c-1.26-.27-2.57-.55-3.87-.84l8.59-24.05c2.3.51,4.53.98,6.68,1.43l-8.57,24.05c-.92-.19-1.86-.39-2.82-.58ZM356.3,258.2c-2.08-.32-4.36-.69-6.81-1.14l8.57-24.02c2.36.43,4.62.83,6.78,1.16l-8.48,23.77c-.03.07-.04.16-.06.23ZM367.83,259.47c-2.02-.11-4.32-.32-6.97-.64l8.55-23.98c2.49.32,4.8.56,6.95.72l-8.53,23.91ZM380.51,257.02c-.2.23-.38.48-.48.79-.26.71-2.21,1.66-7.44,1.77l8.49-23.81c.21,0,.44.01.65.01,2.07,0,4.48-.1,6.65-.55l-7.88,21.79ZM390.27,229.47s-.74,1.79-8.54,1.79c-3.44,0-7.64-.35-12.48-1-.16-.11-.33-.21-.51-.27-.5-.18-1-.17-1.47-.02-24.11-3.56-62.82-14.3-103.29-28.93-32.72-11.83-62.84-24.75-84.78-36.37-26.59-14.09-31.03-21.03-30.49-22.52,0-.02.75-1.79,8.54-1.79,20.42,0,67.74,12.14,117.74,30.22,32.73,11.83,62.85,24.75,84.78,36.37,26.6,14.1,31.03,21.04,30.49,22.52Z"></path></svg>